<!DOCTYPE svg PUBLIC "-//W3C//DTD SVG 1.1//EN" "http://www.w3.org/Graphics/SVG/1.1/DTD/svg11.dtd">
<!-- Uploaded to: SVG Repo, www.svgrepo.com, Transformed by: SVG Repo Mixer Tools -->
<svg version="1.1" id="Icons" xmlns="http://www.w3.org/2000/svg" xmlns:xlink="http://www.w3.org/1999/xlink" viewBox="0 0 32 32" xml:space="preserve" width="60px" height="60px" fill="#ffffff" stroke="#ffffff" transform="rotate(180)matrix(-1, 0, 0, 1, 0, 0)">

<g id="SVGRepo_bgCarrier" stroke-width="0"/>

<g id="SVGRepo_tracerCarrier" stroke-linecap="round" stroke-linejoin="round"/>

<g id="SVGRepo_iconCarrier"> <style type="text/css"> .st0{fill:none;stroke:#ffffff;stroke-width:2;stroke-linecap:round;stroke-linejoin:round;stroke-miterlimit:10;} .st1{fill:none;stroke:#ffffff;stroke-width:2;stroke-linecap:round;stroke-linejoin:round;} .st2{fill:none;stroke:#ffffff;stroke-width:2;stroke-linecap:round;stroke-linejoin:round;stroke-dasharray:6,6;} .st3{fill:none;stroke:#ffffff;stroke-width:2;stroke-linecap:round;stroke-linejoin:round;stroke-dasharray:4,4;} .st4{fill:none;stroke:#ffffff;stroke-width:2;stroke-linecap:round;} .st5{fill:none;stroke:#ffffff;stroke-width:2;stroke-linecap:round;stroke-dasharray:3.1081,3.1081;} .st6{fill:none;stroke:#ffffff;stroke-width:2;stroke-linecap:round;stroke-linejoin:round;stroke-miterlimit:10;stroke-dasharray:4,3;} </style> <line class="st0" x1="8" y1="17" x2="8" y2="19"/> <path class="st0" d="M15.8,14.6c-1.8,0-3.2,1.5-3.2,3.3l0,0.7c0,1.1-0.6,2-1.6,2.3h0h1.6l3,0c1.8,0,3.3-1.5,3.3-3.3 C18.8,16,17.5,14.6,15.8,14.6z"/> <path class="st0" d="M23,9H7c-1.1,0-2,0.9-2,2v14c0,1.1,0.9,2,2,2h18c1.1,0,2-0.9,2-2V11c0-0.6-0.3-1.2-0.7-1.6"/> <path class="st0" d="M16.7,14.7l10.5-9.4c0.5-0.4,1.1-0.4,1.6,0l0,0c0.4,0.4,0.4,1.1,0,1.5l-9.8,10.6"/> </g>

</svg>